<?xml version="1.0" encoding="UTF-8"?>
<svg id="Capa_2" data-name="Capa 2" xmlns="http://www.w3.org/2000/svg" viewBox="0 0 2737.44 847.86">
  <defs>
    <style>
      .cls-1 {
        fill: #fff;
      }
    </style>
  </defs>
  <g id="PPS_LOGO_2023">
    <path id="LOGO_HF_02" class="cls-1" d="m423.93,0L0,423.93l423.93,423.93,423.93-423.93L423.93,0Zm0,56.3l367.63,367.63-367.63,367.63L56.3,423.93,423.93,56.3Zm153.69,464.42h34.06c5.34,0,10.86.4,16.19,0,.24-.02.48,0,.71,0,1.18,0,2.08-.43,2.72-1.07l.14-.13.07-.08c.65-.64,1.09-1.55,1.09-2.74,0-40.08.12-80.17,0-120.25-.11-35.94-11.64-71.04-33.55-99.61-23.29-30.36-57.09-52.1-94.53-60.21-16.01-3.47-32.41-3.95-48.8-3.91,4.27-5.63,8.53-11.26,12.8-16.89,1.9-2.51-.69-6.06-3.47-6.05-14.34.09-28.68.15-43.01.2-9.94.03-19.87.06-29.81.03-3.48,0-6.97-.02-10.45-.06-1.14-.01-2.32-.13-3.46-.06-.26.02-.5,0-.7-.03.26.1.59.25,1.02.46-1.52-.75-2.97-.5-4.08.25-1.59.81-2.63,2.44-1.95,4.24.14.75.55,1.46,1.28,2.01,3.82,5.15,7.63,10.3,11.45,15.46.08.11.16.21.24.32-6.13.04-12.25.16-18.36.42-38.74,1.62-76.06,17.25-104.42,43.69-28.02,26.12-45.98,61.76-50.6,99.76-2.51,20.68-1.17,42.17-1.17,62.94v77.28c0,2.17,1.84,4.02,4.02,4.02h362.59Zm-248.27-190.38v77.46h-84.45c-1.11,0-2.23-.02-3.36-.04,0-4.2,0-8.41,0-12.61.02-22.72,5.26-44.86,15.54-64.8h72.26Zm-67.77-8.04c2.09-3.46,4.33-6.85,6.75-10.15,15.41-21.02,36.85-37.23,61.02-46.67v56.82h-67.77Zm5.81,93.53h61.95v81.63h-76.68c-3.29,0-11.05.02-11.12.02,0-.15,0-.3,0-.45,0-27.07-.01-54.13,0-81.2h25.85Zm100.59-85.49h48.82v77.46h-79.42v-77.46h30.61Zm-30.61-8.04v-59.67c4.41-1.41,8.89-2.61,13.43-3.57,20.22-4.27,41.45-2.92,62-2.92.19,0,.37,0,.56,0,1.15,0,2.29,0,3.44,0v66.16h-79.42Zm21.74,93.53h57.68v81.63h-79.42v-81.63h21.74Zm146.12-85.49v77.46h-80.4v-77.46h80.4Zm-80.4-8.04v-66.2c1.1,0,2.2-.01,3.3-.02,13.11-.08,26.22-.18,39.31.09,13.05.27,25.75,2.46,37.8,6.29v59.83h-80.4Zm45.27,93.53h35.13v81.63h-80.4v-81.63h45.27Zm79.32-85.49h36.93c8.53,16.09,13.93,34.01,15.31,52.94.59,8.12.7,16.32.66,24.52h-89.06v-77.46h36.15Zm-36.15-8.04v-56.99c28.36,11.01,52.55,31.27,68.48,56.99h-68.48Zm52.8,93.53h31.64c1.5,0,3.02.03,4.54.07-.09,6.35-.2,12.7-.2,19v62.56h-88.78v-81.63h52.8Zm-92.68-174.86c38.36.89,75.55,16.35,103.27,42.88,27.57,26.39,44.83,62.64,47.49,100.75,1.33,19.02.39,38.36.39,57.4v70.68h-14.43v-13.82c0-.11-.02-.21-.03-.32,0-27.53.07-55.06.04-82.6,0-2.72-.01-5.44-.02-8.16,0-4.53-.01-9.06-.03-13.59-.08-23.12-5.71-45.42-15.72-65.33-1.12-2.22-2.29-4.41-3.51-6.57-19.94-35.16-53.96-61.89-95.21-70.83-17.29-3.75-35.08-3.61-52.74-3.44,2.42-2.22,4.59-4.7,6.66-7.29,7.95,0,15.89.04,23.83.22Zm-88.52-22.69c1.78-.11,3.48-.24,4.89-.23,10.04.04,20.07.01,30.11-.02,12.36-.04,24.71-.1,37.07-.17-3.26,4.3-6.51,8.59-9.77,12.89-.52.68-1.04,1.36-1.57,2.05-2.15,2.79-4.41,5.55-6.9,7.99-3.33,3.26-7.07,5.94-11.53,7.31-1.53.47-3.16.77-4.88.9-.42.03-.83.08-1.26.09-.63.01-1.23-.01-1.84-.05-1.97-.11-3.81-.48-5.56-1.05-4.24-1.38-7.87-3.96-11.1-7.12-2.57-2.51-4.88-5.38-7.06-8.26-.33-.44-.66-.88-.99-1.32l-9.64-13.01Zm-151.66,189.37c.02,2.73.06,5.46.1,8.18.08,5.35.18,10.68.18,15.97v69.68c0,.18.03.34.05.51v10.69h-12.18c-.71,0-1.52-.07-2.34-.12,0-38.33-.03-76.66,0-114.99.03-33.41,9.95-65.75,29.62-92.89,22.19-30.61,55.64-52.31,92.56-60.31,16.46-3.57,33.49-3.8,50.41-3.64,2,2.53,4.12,4.94,6.49,7.11-8.34-.03-16.67.04-24.98.38-13.37.56-26.34,3-38.65,7.05-1.53.5-3.05,1.04-4.56,1.59-32.81,12.03-60.49,35.68-77.66,65.94-.65,1.15-1.29,2.3-1.91,3.46-8.08,15.18-13.55,31.92-15.75,49.63-1.3,10.43-1.48,21.1-1.4,31.75Zm2156.11-14.36c1.47,4.75,2.2,9.92,2.2,15.52v64.75h-26.02v-64.75c0-5.8-1.33-10.31-3.99-13.52-2.66-3.21-6.66-4.82-11.99-4.82-3.96,0-7.67.85-11.12,2.56-3.45,1.71-6.71,4.1-9.78,7.17v73.35h-26.02v-101.73h15.98c1.64,0,3.02.38,4.15,1.13,1.13.75,1.86,1.91,2.2,3.48l1.74,7.48c2.05-2.05,4.17-3.91,6.35-5.58,2.19-1.67,4.54-3.11,7.07-4.3,2.53-1.19,5.21-2.13,8.04-2.82,2.83-.68,5.96-1.03,9.37-1.03,5.53,0,10.41.96,14.65,2.87,4.23,1.91,7.79,4.58,10.65,7.99,2.87,3.42,5.04,7.5,6.51,12.24Zm-107.68-10.96c-3.89-3.93-8.54-6.93-13.93-9.01-5.4-2.08-11.3-3.13-17.72-3.13-7.58,0-14.38,1.33-20.39,4-6.01,2.66-11.12,6.27-15.32,10.81-4.2,4.54-7.43,9.87-9.68,15.98-2.25,6.11-3.38,12.62-3.38,19.52,0,8.95,1.28,16.82,3.84,23.61,2.56,6.8,6.1,12.5,10.6,17.11,4.51,4.61,9.8,8.08,15.88,10.4,6.08,2.32,12.64,3.48,19.67,3.48,3.48,0,7.1-.27,10.86-.82,3.76-.55,7.46-1.45,11.12-2.71,3.65-1.26,7.19-2.97,10.6-5.12,3.42-2.15,6.52-4.87,9.32-8.15l-7.48-9.63c-1.23-1.57-2.8-2.36-4.71-2.36-1.57,0-3.18.46-4.81,1.38-1.64.92-3.5,1.91-5.58,2.97-2.08,1.06-4.51,2.05-7.27,2.97-2.77.92-6.03,1.38-9.78,1.38s-7.17-.56-10.24-1.69c-3.07-1.13-5.74-2.85-7.99-5.17-2.25-2.32-4.07-5.29-5.43-8.91-1.37-3.62-2.25-7.89-2.66-12.81h60.85c1.16,0,2.13-.15,2.92-.46.79-.31,1.4-.84,1.85-1.59.44-.75.77-1.76.97-3.02.2-1.26.31-2.88.31-4.87,0-7.38-1.09-13.93-3.28-19.67-2.19-5.74-5.22-10.57-9.12-14.5Zm-53.99,28.53c1.09-7.03,3.52-12.48,7.27-16.34,3.75-3.86,8.95-5.79,15.57-5.79,3.49,0,6.49.6,9.02,1.79,2.53,1.2,4.63,2.82,6.3,4.87,1.67,2.05,2.9,4.4,3.69,7.07.78,2.66,1.18,5.47,1.18,8.4h-43.03Zm-1128.65-47.23c-1.98-5.33-5.06-9.92-9.22-13.78-4.17-3.86-9.42-6.88-15.78-9.07-6.35-2.19-13.93-3.28-22.74-3.28h-3.15c1.06-5.2,2.64-10.69,4.64-14.95,1.01-2.16,2.16-4.26,3.46-6.26.53-.81,1.09-1.6,1.67-2.38.13-.16.48-.62.59-.75.38-.46.77-.91,1.16-1.35,1.24-1.37,2.57-2.66,4-3.84.17-.14.73-.57.67-.53.17-.13.34-.26.52-.38.63-.45,1.27-.87,1.92-1.27,1.12-.69,2.29-1.32,3.49-1.87.26-.12.53-.22.78-.35l-.17.08.04-.02c.51-.19,1.02-.38,1.54-.55.75-.24,1.51-.46,2.28-.62.2-.04.4-.08.6-.12,2.13-.12,4.23-.3,6.37-.25,1.13.03,2.26.09,3.39.19.56.05,1.11.11,1.66.17l.15.02c.31.05.62.09.93.14,4.46.73,8.82,2.02,13.02,3.67.42.17.84.34,1.26.51.1.04.82.35,1,.43,1.09.49,2.17.99,3.25,1.52,1.96.96,3.89,1.98,5.8,3.03,14.21,7.84,28.54,19.41,45.51,19.71,9.3.16,18.06-3.64,25.35-9.21,10.32-7.88,18.39-18.13,23.28-30.17,5.27-12.98,6.53-28.24,3.77-42.15l9.77-4.69c2.29-1.1,4.11-2.99,5.12-5.33,1.01-2.33,1.14-4.96.38-7.38l-21.92-69.3c-.27-.85.13-1.76.93-2.15l6.08-2.92c.97-.47,2.13.03,2.47,1.05l5.2,15.66c1.14,3.43,4.85,5.29,8.29,4.15,3.43-1.14,5.29-4.84,4.16-8.28l-5.87-17.7c-.28-.85.11-1.78.92-2.17l4.52-2.17h0c.43-.21.81-.52,1.1-.9l14.84-19.78c.59-.78.69-1.83.27-2.72l-.15-.31-5.68-11.82-.15-.31c-.42-.89-1.31-1.46-2.29-1.49l-24.72-.78c-.48-.02-.96.08-1.39.29l-1.63.78c-.72.35-1.58.17-2.11-.42l-4.66-5.25c-.5-.56-.6-1.38-.24-2.03,3.43-6.2,4.93-13.29,4.28-20.36-.69-7.48-3.75-14.55-8.74-20.18l-34.61-38.95c-3.06-3.45-8.33-3.76-11.78-.7l-40.24,35.75c-3.45,3.06-3.76,8.34-.7,11.78l34.61,38.95c5,5.61,11.66,9.48,19.01,11.05,6.95,1.48,14.17.83,20.73-1.85.69-.28,1.49-.09,1.99.47.79.89.51,2.28-.56,2.8l-12.23,5.88-18.92,9.09h0s-17.78,8.55-17.78,8.55h0c-5.07,2.43-8.98,6.77-10.87,12.06-1.89,5.3-1.62,11.13.77,16.22,2.43,4.98,6.74,8.79,11.97,10.61,5.23,1.82,10.97,1.49,15.97-.9l6.56-3.15c.98-.47,2.15.04,2.48,1.07l20.86,65.94h0c.92,2.92,3.07,5.3,5.88,6.51,2.81,1.22,6.01,1.15,8.77-.17l1.02-.49c.04.23.07.45.11.68.05.33.17,1.55.04.22.09.86.21,1.73.29,2.59.39,4.12.45,8.27.18,12.4-.08,1.13-.18,2.25-.3,3.37-.03.29-.07.57-.1.86.02-.2.12-.77-.02.13-.1.66-.2,1.32-.32,1.98-.44,2.53-1.02,5.03-1.74,7.5-3.29,11.17-9.97,21.07-18.94,28.95-3.44,3.02-7.3,5.7-11.81,7.73-.21.08-.79.33-.92.37-.47.18-.94.34-1.42.5-.92.3-1.85.56-2.8.78-.46.11-.92.2-1.38.29-.21.04-.77.12-.91.14-.89.1-1.79.17-2.69.19-.89.02-1.79,0-2.68-.05-.44-.03-.89-.06-1.33-.11-.21-.02-.41-.05-.62-.07h-.03c-1.83-.34-3.62-.71-5.4-1.24-.87-.26-1.74-.55-2.6-.86-.43-.16-.87-.32-1.3-.49-.19-.08-.99-.41-1.15-.47-1.71-.75-3.4-1.55-5.06-2.41-7.54-3.89-14.63-8.6-22.05-12.71-7.89-4.37-16.29-8.21-25.2-9.9-6.54-1.24-13.91-1.91-20.43-.1-15.43,4.29-25.24,18.74-29.67,33.36-.94,3.08-1.65,6.23-2.23,9.4-.03.17-.04.34-.05.51h-31.67v136.05h26.94v-47.23h16.8c8.54,0,15.98-1.11,22.33-3.33,6.35-2.22,11.63-5.31,15.83-9.27,4.2-3.96,7.34-8.71,9.43-14.24,2.08-5.53,3.12-11.64,3.12-18.34,0-6.35-.99-12.19-2.97-17.52Zm-29.71,35.29c-3.83,4.34-9.83,6.51-18.03,6.51h-16.8v-47.23h16.8c8.06,0,14.04,2.07,17.93,6.2,3.89,4.13,5.84,9.72,5.84,16.75,0,7.51-1.91,13.44-5.74,17.77Zm222.64-14.65c-4.37-4.54-9.63-8.02-15.78-10.45-6.15-2.42-12.94-3.64-20.39-3.64s-14.36,1.21-20.54,3.64c-6.18,2.43-11.47,5.91-15.88,10.45-4.41,4.54-7.8,10.04-10.19,16.49-2.39,6.45-3.59,13.68-3.59,21.67s1.19,15.44,3.59,21.92c2.39,6.49,5.79,12,10.19,16.55,4.4,4.54,9.7,8.04,15.88,10.5,6.18,2.46,13.03,3.69,20.54,3.69s14.24-1.23,20.39-3.69c6.15-2.46,11.4-5.96,15.78-10.5,4.37-4.54,7.75-10.06,10.14-16.55,2.39-6.49,3.58-13.79,3.58-21.92s-1.19-15.21-3.58-21.67c-2.39-6.45-5.77-11.95-10.14-16.49Zm-18.75,62.7c-3.76,5.5-9.56,8.25-17.42,8.25s-13.88-2.75-17.67-8.25c-3.79-5.5-5.69-13.61-5.69-24.33s1.9-18.83,5.69-24.33c3.79-5.5,9.68-8.25,17.67-8.25s13.66,2.75,17.42,8.25c3.76,5.5,5.63,13.61,5.63,24.33s-1.88,18.84-5.63,24.33Zm832.82-73.92l-1.95,19.47c-.14,1.23-.55,2.1-1.23,2.61-.68.51-1.61.77-2.77.77-1.03,0-2.49-.15-4.41-.46-1.91-.31-3.69-.46-5.33-.46-2.39,0-4.52.34-6.4,1.03-1.88.68-3.55,1.69-5.02,3.02-1.47,1.33-2.79,2.96-3.94,4.87-1.16,1.91-2.22,4.1-3.18,6.56v63.11h-26.02v-101.73h15.27c2.66,0,4.52.48,5.58,1.44,1.06.96,1.76,2.63,2.1,5.02l1.33,10.35c3.07-5.8,6.66-10.38,10.76-13.73,4.1-3.34,8.84-5.02,14.24-5.02,4.44,0,8.09,1.06,10.96,3.18Zm-792.52-46.72h26.02v147.22h-26.02v-147.22Zm1423.94,129.47c-4.79,6.73-10.8,11.85-18.03,15.38-7.23,3.53-15.8,5.3-25.72,5.3-8.99,0-17.09-1.68-24.28-5.05-7.2-3.36-13.31-8.05-18.33-14.09-5.03-6.03-8.89-13.19-11.59-21.48-2.7-8.3-4.05-17.37-4.05-27.23s1.45-19.03,4.34-27.32c2.9-8.3,6.98-15.43,12.24-21.43,5.26-6,11.56-10.66,18.89-13.99,7.32-3.33,15.38-5,24.17-5s16.82,1.58,23.68,4.75c6.86,3.16,12.59,7.34,17.18,12.54l-8.79,12.29c-.6.73-1.29,1.4-2.05,2s-1.85.9-3.25.9-2.75-.54-4.04-1.6c-1.3-1.07-2.9-2.23-4.8-3.5-1.89-1.26-4.28-2.43-7.14-3.5-2.87-1.07-6.53-1.6-10.99-1.6-4.86,0-9.29,1.02-13.28,3.05-4,2.04-7.43,5-10.3,8.89-2.86,3.89-5.08,8.66-6.64,14.28-1.57,5.63-2.35,12.04-2.35,19.23s.86,13.72,2.6,19.39c1.73,5.66,4.07,10.44,7.04,14.34,2.96,3.89,6.44,6.86,10.44,8.89,4,2.04,8.3,3.05,12.89,3.05,2.73,0,5.19-.15,7.39-.45,2.2-.3,4.25-.83,6.15-1.6,1.9-.76,3.68-1.75,5.34-2.94,1.67-1.2,3.33-2.69,5-4.5.67-.53,1.35-.98,2.05-1.35.7-.36,1.41-.55,2.14-.55,1.4,0,2.6.54,3.6,1.6l10.49,11.29Zm-164.02-2.3h46.06v21.58h-72.34v-132.68h26.27v111.09Zm-95.88,0h46.06v21.58h-72.34v-132.68h26.28v111.09Zm-1289.58-69.23c-4.37-4.54-9.63-8.02-15.78-10.45-6.15-2.42-12.94-3.64-20.39-3.64s-14.36,1.21-20.54,3.64c-6.18,2.43-11.47,5.91-15.88,10.45-4.41,4.54-7.8,10.04-10.19,16.49-2.39,6.45-3.59,13.68-3.59,21.67s1.19,15.44,3.59,21.92c2.39,6.49,5.79,12,10.19,16.55,4.4,4.54,9.7,8.04,15.88,10.5,6.18,2.46,13.03,3.69,20.54,3.69s14.24-1.23,20.39-3.69c6.15-2.46,11.41-5.96,15.78-10.5,4.37-4.54,7.75-10.06,10.14-16.55,2.39-6.49,3.58-13.79,3.58-21.92s-1.19-15.21-3.58-21.67c-2.39-6.45-5.77-11.95-10.14-16.49Zm-18.75,62.7c-3.76,5.5-9.56,8.25-17.42,8.25s-13.88-2.75-17.67-8.25c-3.79-5.5-5.69-13.61-5.69-24.33s1.9-18.83,5.69-24.33c3.79-5.5,9.68-8.25,17.67-8.25s13.66,2.75,17.42,8.25c3.76,5.5,5.63,13.61,5.63,24.33s-1.88,18.84-5.63,24.33Zm619.77,6.61l7.89,12.6c-3.55,2.94-7.6,5.16-12.14,6.66-4.54,1.5-9.23,2.25-14.08,2.25-8.81,0-15.57-2.54-20.29-7.63-4.71-5.09-7.07-12.07-7.07-20.95v-55.53h-9.22c-1.37,0-2.53-.46-3.48-1.38-.96-.92-1.43-2.27-1.43-4.05v-10.35l15.47-2.97,5.43-26.84c.61-2.8,2.52-4.2,5.74-4.2h13.52v31.35h25.1v18.44h-25.1v53.79c0,3,.65,5.34,1.95,7.02,1.3,1.67,3.14,2.51,5.53,2.51,1.3,0,2.37-.15,3.23-.46.85-.31,1.59-.66,2.2-1.08.61-.41,1.18-.77,1.69-1.07.51-.31,1.08-.46,1.69-.46.75,0,1.37.19,1.84.56.48.38.99.97,1.54,1.79Zm-63.22-60.29c1.47,4.75,2.2,9.92,2.2,15.52v64.75h-26.02v-64.75c0-5.8-1.33-10.31-4-13.52-2.66-3.21-6.66-4.82-11.99-4.82.02,0-7.67.85-11.12,2.56-3.45,1.71-6.71,4.1-9.78,7.17v73.35h-26.02v-101.73h15.98c1.64,0,3.02.38,4.15,1.13,1.13.75,1.86,1.91,2.2,3.48l1.74,7.48c2.05-2.05,4.17-3.91,6.35-5.58,2.19-1.67,4.54-3.11,7.07-4.3,2.53-1.19,5.21-2.13,8.04-2.82,2.83-.68,5.96-1.03,9.37-1.03,5.53,0,10.41.96,14.65,2.87,4.23,1.91,7.79,4.58,10.65,7.99,2.87,3.42,5.04,7.5,6.5,12.24Zm218.8,22.9c1.67,3.96,2.51,8.78,2.51,14.44,0,6.15-1.01,11.92-3.02,17.31-2.02,5.4-4.97,10.09-8.86,14.09-3.89,4-8.66,7.16-14.29,9.48-5.63,2.32-12.07,3.48-19.31,3.48-4.1,0-8.18-.43-12.24-1.28-4.06-.85-7.97-2.07-11.73-3.64-3.76-1.57-7.31-3.45-10.65-5.63-3.35-2.19-6.29-4.64-8.81-7.38l7.99-12.81c.62-1.02,1.45-1.84,2.51-2.46,1.06-.61,2.2-.92,3.43-.92,1.64,0,3.33.63,5.07,1.89,1.74,1.27,3.77,2.66,6.1,4.2,2.32,1.54,5.02,2.94,8.09,4.2,3.08,1.27,6.73,1.9,10.96,1.9,6.15,0,10.93-1.57,14.34-4.71,3.41-3.14,5.12-7.79,5.12-13.93,0-3.48-.84-6.32-2.51-8.5-1.67-2.19-3.88-4.01-6.61-5.48-2.73-1.47-5.86-2.73-9.37-3.79-3.52-1.06-7.1-2.2-10.76-3.43-3.65-1.23-7.24-2.71-10.75-4.46-3.52-1.74-6.64-4.05-9.37-6.92-2.73-2.87-4.94-6.42-6.61-10.65-1.68-4.23-2.51-9.49-2.51-15.78,0-4.98.96-9.85,2.87-14.6,1.91-4.75,4.71-8.96,8.4-12.65,3.69-3.69,8.21-6.64,13.58-8.86,5.36-2.22,11.49-3.33,18.39-3.33,7.79,0,15.01,1.26,21.67,3.79,6.66,2.53,12.34,6.08,17.06,10.66l-6.86,12.7c-.69,1.37-1.49,2.34-2.41,2.92-.92.58-2.07.87-3.43.87s-2.7-.48-4.2-1.43c-1.5-.96-3.26-2-5.27-3.13-2.02-1.13-4.36-2.17-7.02-3.13-2.66-.95-5.74-1.43-9.22-1.43-6.15,0-10.77,1.5-13.88,4.51-3.11,3-4.66,6.93-4.66,11.78,0,3.07.84,5.62,2.51,7.63,1.67,2.02,3.89,3.76,6.66,5.23,2.77,1.47,5.91,2.78,9.43,3.94,3.52,1.16,7.12,2.41,10.81,3.74,3.69,1.33,7.29,2.9,10.81,4.71,3.52,1.81,6.66,4.08,9.43,6.81,2.77,2.73,4.98,6.08,6.66,10.04Zm-458.65-66.33c-4.17-3.86-9.42-6.88-15.78-9.07-6.35-2.19-13.93-3.28-22.74-3.28h-43.74v136.05h26.94v-47.23h16.8c8.54,0,15.98-1.11,22.33-3.33,6.35-2.22,11.63-5.31,15.83-9.27,4.2-3.96,7.34-8.71,9.43-14.24,2.08-5.53,3.12-11.64,3.12-18.34,0-6.35-.99-12.19-2.97-17.52-1.98-5.33-5.05-9.92-9.22-13.78Zm-20.49,49.07c-3.82,4.34-9.83,6.51-18.03,6.51h-16.8v-47.23h16.8c8.06,0,14.04,2.07,17.93,6.2,3.89,4.13,5.84,9.72,5.84,16.75,0,7.51-1.91,13.44-5.74,17.77Zm160.63-62.65c.89,1.98,1.33,4.1,1.33,6.35s-.44,4.35-1.33,6.3c-.89,1.95-2.08,3.65-3.59,5.12-1.5,1.47-3.28,2.63-5.33,3.48-2.05.85-4.2,1.28-6.45,1.28s-4.25-.43-6.2-1.28c-1.95-.85-3.65-2.01-5.12-3.48-1.47-1.47-2.63-3.18-3.48-5.12-.86-1.95-1.28-4.05-1.28-6.3s.43-4.37,1.28-6.35c.85-1.98,2.01-3.7,3.48-5.17,1.47-1.47,3.18-2.63,5.12-3.48,1.95-.85,4.01-1.28,6.2-1.28s4.41.43,6.45,1.28c2.05.86,3.82,2.02,5.33,3.48,1.5,1.47,2.7,3.19,3.59,5.17Zm402.5,112.38l7.58,9.63c-2.73,3.28-5.63,5.99-8.71,8.15-3.07,2.15-6.23,3.88-9.48,5.17-3.24,1.3-6.52,2.2-9.84,2.72s-6.57.77-9.78.77c-5.74,0-11.15-1.18-16.24-3.54-5.09-2.36-9.56-5.79-13.42-10.3-3.86-4.51-6.92-10.02-9.17-16.55s-3.38-13.95-3.38-22.28c0-7.44.99-14.34,2.97-20.69,1.98-6.35,4.9-11.87,8.76-16.55,3.86-4.68,8.64-8.35,14.34-11.01,5.7-2.66,12.31-4,19.82-4,7.1,0,13.35,1.25,18.75,3.74,5.39,2.49,10.24,6.1,14.55,10.81l-6.87,9.32c-.75.96-1.5,1.73-2.25,2.3-.75.58-1.81.87-3.18.87s-2.49-.37-3.58-1.13c-1.09-.75-2.34-1.59-3.74-2.51-1.4-.92-3.04-1.76-4.92-2.51-1.88-.75-4.25-1.13-7.12-1.13-3.55,0-6.64.75-9.27,2.25-2.63,1.5-4.8,3.66-6.5,6.46-1.71,2.8-2.99,6.22-3.84,10.24-.85,4.03-1.28,8.54-1.28,13.52,0,10.59,1.81,18.73,5.43,24.44,3.62,5.7,8.61,8.55,14.96,8.55,3.35,0,6.01-.48,7.99-1.43,1.98-.96,3.65-2,5.02-3.13,1.36-1.13,2.61-2.17,3.74-3.12,1.13-.96,2.47-1.44,4.05-1.44,1.98,0,3.52.79,4.61,2.36Zm156.3-66.34c-3.89-3.93-8.54-6.93-13.93-9.01-5.4-2.08-11.3-3.13-17.72-3.13-7.58,0-14.38,1.33-20.39,4-6.01,2.66-11.12,6.27-15.32,10.81-4.2,4.54-7.43,9.87-9.68,15.98-2.25,6.11-3.38,12.62-3.38,19.52,0,8.95,1.28,16.82,3.84,23.61,2.56,6.8,6.1,12.5,10.6,17.11,4.51,4.61,9.8,8.08,15.88,10.4,6.08,2.32,12.64,3.48,19.67,3.48,3.48,0,7.1-.27,10.86-.82,3.76-.55,7.46-1.45,11.12-2.71,3.65-1.26,7.19-2.97,10.6-5.12,3.42-2.15,6.52-4.87,9.32-8.15l-7.48-9.63c-1.23-1.57-2.8-2.36-4.71-2.36-1.57,0-3.18.46-4.81,1.38-1.64.92-3.5,1.91-5.58,2.97-2.08,1.06-4.51,2.05-7.27,2.97-2.77.92-6.03,1.38-9.78,1.38s-7.17-.56-10.24-1.69c-3.07-1.13-5.74-2.85-7.99-5.17-2.25-2.32-4.07-5.29-5.43-8.91-1.37-3.62-2.25-7.89-2.66-12.81h60.85c1.16,0,2.13-.15,2.92-.46.79-.31,1.4-.84,1.84-1.59.44-.75.77-1.76.97-3.02.2-1.26.31-2.88.31-4.87,0-7.38-1.09-13.93-3.28-19.67-2.19-5.74-5.23-10.57-9.12-14.5Zm-53.99,28.53c1.09-7.03,3.52-12.48,7.27-16.34,3.75-3.86,8.95-5.79,15.57-5.79,3.48,0,6.49.6,9.02,1.79,2.53,1.2,4.63,2.82,6.3,4.87,1.67,2.05,2.9,4.4,3.69,7.07.78,2.66,1.18,5.47,1.18,8.4h-43.03Zm-532.67-39.03h26.02v101.73h-26.02v-101.73Zm-23.21,9.17c-3.28-3.52-7.27-6.25-11.99-8.2-4.71-1.95-10.04-2.92-15.98-2.92-8.27,0-15.95,1.33-23.05,4-7.1,2.66-13.59,6.73-19.46,12.19l4.71,8.2c.75,1.3,1.76,2.41,3.02,3.33,1.26.92,2.78,1.38,4.56,1.38,2.05,0,3.89-.44,5.53-1.33,1.64-.89,3.41-1.86,5.33-2.92,1.91-1.06,4.11-2.03,6.61-2.92,2.49-.89,5.65-1.33,9.48-1.33,5.12,0,9.05,1.54,11.78,4.61,2.73,3.08,4.1,7.89,4.1,14.45v5.43c-11.47.27-21.05,1.42-28.74,3.43-7.68,2.02-13.83,4.54-18.44,7.58-4.61,3.04-7.87,6.44-9.78,10.19-1.91,3.76-2.87,7.52-2.87,11.27,0,4.51.72,8.49,2.15,11.93,1.43,3.45,3.47,6.34,6.09,8.66,2.63,2.32,5.75,4.08,9.37,5.27,3.62,1.19,7.61,1.79,11.99,1.79,3.55,0,6.78-.29,9.68-.87,2.9-.58,5.63-1.45,8.2-2.61,2.56-1.16,5.04-2.59,7.43-4.3,2.39-1.71,4.88-3.69,7.48-5.94l2.25,6.76c.75,2.19,1.78,3.64,3.07,4.35,1.3.72,3.18,1.08,5.63,1.08h11.88v-64.03c0-5.81-.85-11.13-2.56-15.98-1.71-4.85-4.2-9.03-7.48-12.55Zm-15.37,66.13c-3.35,3.48-6.71,6.06-10.09,7.74-3.38,1.67-7.4,2.51-12.04,2.51-3.96,0-7.09-.85-9.37-2.56-2.29-1.71-3.43-4.61-3.43-8.71,0-2.05.56-3.96,1.69-5.74,1.13-1.78,3.02-3.33,5.69-4.66,2.66-1.33,6.23-2.42,10.71-3.28,4.47-.85,10.09-1.42,16.85-1.69v16.39Zm-552.07,125.04v-60.52h20.55c3.89,0,7.22.38,9.98,1.14,2.76.76,5.02,1.84,6.77,3.24,1.75,1.4,3.02,3.09,3.83,5.08.81,1.99,1.21,4.22,1.21,6.68,0,1.4-.2,2.75-.59,4.06-.4,1.31-1,2.52-1.82,3.65-.82,1.13-1.88,2.15-3.17,3.08-1.29.93-2.83,1.71-4.63,2.35,7.81,1.88,11.71,6.33,11.71,13.35,0,2.58-.47,4.97-1.41,7.16-.94,2.19-2.32,4.08-4.12,5.67-1.81,1.59-4.04,2.84-6.7,3.74-2.66.9-5.71,1.35-9.14,1.35h-22.47Zm11.99-34.55h7.88c3.37,0,5.97-.64,7.79-1.94s2.73-3.43,2.73-6.4-.79-5.28-2.37-6.54c-1.58-1.26-4.07-1.89-7.47-1.89h-8.57v16.77Zm0,8.25v17h10.25c1.91,0,3.51-.24,4.79-.73,1.28-.48,2.29-1.14,3.03-1.96.74-.82,1.27-1.77,1.57-2.85.3-1.08.46-2.19.46-3.35,0-1.25-.17-2.37-.52-3.37s-.91-1.85-1.69-2.55c-.77-.7-1.79-1.24-3.05-1.62-1.26-.38-2.8-.57-4.63-.57h-10.21Zm98.67-34.23v9.52h-24.88v16h19.37v9.16h-19.37v16.31h24.93l-.04,9.53h-36.92v-60.52h36.92Zm70.1,0v9.75h-16.32v50.77h-11.94v-50.77h-16.31v-9.75h44.57Zm68.82,0v9.75h-16.32v50.77h-11.94v-50.77h-16.31v-9.75h44.57Zm64.58,0v9.52h-24.88v16h19.37v9.16h-19.37v16.31h24.93l-.04,9.53h-36.92v-60.52h36.92Zm42.11,37.23v23.29h-12.03v-60.52h18.23c4.04,0,7.5.43,10.39,1.3,2.89.87,5.25,2.07,7.09,3.62,1.84,1.55,3.18,3.4,4.03,5.56.85,2.16,1.28,4.53,1.28,7.11,0,1.98-.27,3.85-.82,5.63-.55,1.78-1.35,3.4-2.39,4.88-1.05,1.47-2.33,2.78-3.85,3.92-1.52,1.14-3.27,2.06-5.24,2.76.76.43,1.47.93,2.14,1.53.67.59,1.29,1.32,1.87,2.17l13.53,22.06h-10.8c-1.91,0-3.39-.8-4.42-2.41l-11.03-18.87c-.46-.73-.97-1.24-1.53-1.55-.56-.3-1.36-.46-2.39-.46h-4.06Zm0-8.52h6.11c1.94,0,3.62-.26,5.04-.78,1.41-.52,2.57-1.23,3.49-2.14.91-.91,1.59-2,2.03-3.26.44-1.26.66-2.64.66-4.12,0-2.95-.91-5.22-2.73-6.81-1.82-1.59-4.62-2.39-8.39-2.39h-6.2v19.5Zm116.4,10.8v21.01h-11.99v-60.52h19.46c3.92,0,7.29.48,10.12,1.46,2.83.97,5.16,2.32,7.02,4.03,1.85,1.72,3.22,3.76,4.1,6.13.88,2.37,1.32,4.97,1.32,7.79,0,2.98-.46,5.7-1.39,8.16-.93,2.46-2.32,4.57-4.19,6.33-1.87,1.76-4.21,3.14-7.04,4.12-2.82.99-6.14,1.48-9.94,1.48h-7.47Zm0-9.3h7.47c3.65,0,6.32-.96,8.02-2.89s2.55-4.56,2.55-7.91c0-3.13-.87-5.61-2.6-7.45-1.73-1.84-4.39-2.76-7.98-2.76h-7.47v21.01Zm71.33,7.02v23.29h-12.03v-60.52h18.23c4.04,0,7.5.43,10.39,1.3,2.89.87,5.25,2.07,7.09,3.62,1.84,1.55,3.18,3.4,4.03,5.56.85,2.16,1.28,4.53,1.28,7.11,0,1.98-.27,3.85-.82,5.63-.55,1.78-1.35,3.4-2.39,4.88-1.05,1.47-2.33,2.78-3.85,3.92-1.52,1.14-3.27,2.06-5.24,2.76.76.43,1.47.93,2.14,1.53.67.59,1.29,1.32,1.87,2.17l13.53,22.06h-10.8c-1.91,0-3.39-.8-4.42-2.41l-11.03-18.87c-.46-.73-.97-1.24-1.53-1.55-.56-.3-1.36-.46-2.39-.46h-4.06Zm0-8.52h6.11c1.94,0,3.62-.26,5.04-.78,1.41-.52,2.57-1.23,3.49-2.14.91-.91,1.59-2,2.03-3.26.44-1.26.66-2.64.66-4.12,0-2.95-.91-5.22-2.73-6.81-1.82-1.59-4.62-2.39-8.39-2.39h-6.2v19.5Zm75.06,31.81h-12.03v-60.52h12.03v60.52Zm69.91-14.68c.64,0,1.18.24,1.64.73l4.79,5.15c-2.19,3.07-4.93,5.41-8.23,7.02-3.3,1.61-7.21,2.41-11.74,2.41-4.1,0-7.79-.77-11.08-2.3-3.28-1.54-6.07-3.68-8.36-6.43-2.29-2.75-4.06-6.02-5.29-9.8-1.23-3.78-1.85-7.92-1.85-12.42s.66-8.68,1.98-12.46c1.32-3.78,3.18-7.04,5.58-9.78,2.4-2.73,5.27-4.86,8.61-6.38,3.34-1.52,7.02-2.28,11.03-2.28s7.67.72,10.8,2.17c3.13,1.44,5.74,3.35,7.84,5.72l-4.01,5.61c-.27.33-.59.64-.93.91-.35.27-.84.41-1.48.41s-1.25-.24-1.85-.73c-.59-.48-1.32-1.02-2.19-1.59s-1.95-1.11-3.26-1.6c-1.31-.48-2.98-.73-5.01-.73-2.22,0-4.24.46-6.06,1.39s-3.39,2.28-4.69,4.06c-1.31,1.78-2.32,3.95-3.03,6.52-.71,2.57-1.07,5.49-1.07,8.77s.39,6.26,1.19,8.84c.79,2.58,1.86,4.76,3.21,6.54,1.35,1.78,2.94,3.13,4.76,4.06,1.82.93,3.78,1.39,5.88,1.39,1.25,0,2.37-.07,3.37-.21,1-.13,1.94-.38,2.8-.73.87-.35,1.68-.8,2.44-1.34.76-.55,1.52-1.23,2.28-2.05.3-.24.62-.45.93-.61.32-.17.65-.25.98-.25Zm71.14-45.85v9.52h-24.88v16h19.37v9.16h-19.37v16.31h24.93l-.04,9.53h-36.92v-60.52h36.92Zm72.69,60.52v-60.52h20.55c3.89,0,7.22.38,9.98,1.14,2.76.76,5.02,1.84,6.77,3.24,1.75,1.4,3.02,3.09,3.83,5.08.8,1.99,1.21,4.22,1.21,6.68,0,1.4-.2,2.75-.59,4.06-.39,1.31-1,2.52-1.82,3.65-.82,1.13-1.88,2.15-3.17,3.08-1.29.93-2.83,1.71-4.63,2.35,7.81,1.88,11.71,6.33,11.71,13.35,0,2.58-.47,4.97-1.41,7.16-.94,2.19-2.32,4.08-4.12,5.67-1.81,1.59-4.04,2.84-6.7,3.74-2.66.9-5.71,1.35-9.14,1.35h-22.47Zm11.99-34.55h7.88c3.37,0,5.97-.64,7.79-1.94,1.82-1.29,2.73-3.43,2.73-6.4s-.79-5.28-2.37-6.54-4.07-1.89-7.47-1.89h-8.57v16.77Zm0,8.25v17h10.25c1.91,0,3.51-.24,4.79-.73,1.28-.48,2.28-1.14,3.03-1.96.74-.82,1.27-1.77,1.57-2.85.3-1.08.46-2.19.46-3.35,0-1.25-.17-2.37-.52-3.37-.35-1-.91-1.85-1.69-2.55-.77-.7-1.79-1.24-3.05-1.62-1.26-.38-2.8-.57-4.62-.57h-10.21Zm98.67-34.23v9.52h-24.88v16h19.37v9.16h-19.37v16.31h24.93l-.04,9.53h-36.92v-60.52h36.92Zm70.09,0v9.75h-16.31v50.77h-11.94v-50.77h-16.31v-9.75h44.57Zm68.82,0v9.75h-16.31v50.77h-11.94v-50.77h-16.31v-9.75h44.57Zm64.58,0v9.52h-24.89v16h19.37v9.16h-19.37v16.31h24.93l-.04,9.53h-36.92v-60.52h36.92Zm42.11,37.23v23.29h-12.03v-60.52h18.23c4.04,0,7.5.43,10.39,1.3s5.25,2.07,7.09,3.62c1.84,1.55,3.18,3.4,4.03,5.56.85,2.16,1.28,4.53,1.28,7.11,0,1.98-.27,3.85-.82,5.63-.55,1.78-1.34,3.4-2.39,4.88-1.05,1.47-2.33,2.78-3.85,3.92s-3.27,2.06-5.24,2.76c.76.43,1.47.93,2.14,1.53.67.59,1.29,1.32,1.87,2.17l13.54,22.06h-10.8c-1.91,0-3.39-.8-4.42-2.41l-11.03-18.87c-.46-.73-.97-1.24-1.53-1.55-.56-.3-1.36-.46-2.39-.46h-4.06Zm0-8.52h6.11c1.94,0,3.62-.26,5.04-.78,1.41-.52,2.58-1.23,3.49-2.14.91-.91,1.59-2,2.03-3.26.44-1.26.66-2.64.66-4.12,0-2.95-.91-5.22-2.73-6.81-1.82-1.59-4.62-2.39-8.39-2.39h-6.2v19.5Zm136.59-17.32c-.3.61-.66,1.04-1.07,1.3-.41.26-.92.39-1.53.39s-1.2-.21-1.87-.64c-.67-.43-1.45-.89-2.35-1.39-.9-.5-1.94-.96-3.12-1.39-1.19-.43-2.55-.64-4.1-.64-2.73,0-4.79.67-6.17,2-1.38,1.34-2.07,3.08-2.07,5.24,0,1.37.37,2.5,1.12,3.39.74.9,1.73,1.67,2.96,2.32,1.23.65,2.63,1.24,4.19,1.76,1.56.52,3.17,1.07,4.81,1.66,1.64.59,3.24,1.29,4.81,2.1,1.56.81,2.96,1.82,4.19,3.03,1.23,1.22,2.22,2.7,2.96,4.47.74,1.76,1.11,3.9,1.11,6.43,0,2.73-.45,5.3-1.34,7.7-.9,2.4-2.21,4.49-3.94,6.27-1.73,1.78-3.85,3.18-6.36,4.22-2.5,1.03-5.37,1.55-8.59,1.55-1.82,0-3.64-.19-5.45-.57-1.81-.38-3.55-.92-5.22-1.62-1.67-.7-3.25-1.54-4.74-2.51-1.49-.97-2.79-2.06-3.92-3.28l3.56-5.7c.27-.46.64-.82,1.11-1.09.47-.27.98-.41,1.53-.41.73,0,1.48.28,2.26.84.78.56,1.68,1.19,2.71,1.87,1.03.68,2.23,1.31,3.6,1.87,1.37.56,2.99.84,4.88.84,2.74,0,4.86-.7,6.38-2.09,1.52-1.4,2.28-3.47,2.28-6.2,0-1.55-.37-2.81-1.12-3.78-.74-.97-1.73-1.78-2.94-2.44-1.22-.65-2.61-1.22-4.17-1.69-1.57-.47-3.16-.98-4.79-1.53-1.63-.55-3.22-1.21-4.78-1.98-1.56-.78-2.95-1.8-4.17-3.08-1.22-1.28-2.19-2.86-2.94-4.74-.74-1.88-1.11-4.22-1.11-7.02,0-2.22.42-4.38,1.28-6.49.85-2.11,2.1-3.99,3.74-5.63,1.64-1.64,3.65-2.95,6.04-3.94,2.39-.99,5.11-1.48,8.18-1.48,3.46,0,6.68.56,9.64,1.69,2.96,1.13,5.49,2.71,7.59,4.74l-3.05,5.65Zm70.46-11.39v9.52h-24.89v16h19.37v9.16h-19.37v16.31h24.93l-.04,9.53h-36.92v-60.52h36.92Zm42.11,37.23v23.29h-12.03v-60.52h18.23c4.04,0,7.5.43,10.39,1.3,2.89.87,5.25,2.07,7.09,3.62,1.84,1.55,3.18,3.4,4.03,5.56.85,2.16,1.28,4.53,1.28,7.11,0,1.98-.27,3.85-.82,5.63-.55,1.78-1.34,3.4-2.39,4.88-1.05,1.47-2.33,2.78-3.85,3.92s-3.27,2.06-5.24,2.76c.76.43,1.47.93,2.14,1.53.67.59,1.29,1.32,1.87,2.17l13.54,22.06h-10.8c-1.91,0-3.39-.8-4.42-2.41l-11.03-18.87c-.46-.73-.97-1.24-1.53-1.55-.56-.3-1.36-.46-2.39-.46h-4.06Zm0-8.52h6.11c1.94,0,3.62-.26,5.04-.78,1.41-.52,2.58-1.23,3.49-2.14.91-.91,1.59-2,2.03-3.26.44-1.26.66-2.64.66-4.12,0-2.95-.91-5.22-2.73-6.81-1.82-1.59-4.62-2.39-8.39-2.39h-6.2v19.5Zm55.51-28.71h9.62c1.03,0,1.88.24,2.53.73.65.49,1.15,1.12,1.48,1.91l11.39,35.73c.46,1.25.91,2.6,1.37,4.06.46,1.46.88,2.98,1.28,4.56.33-1.61.71-3.15,1.11-4.63.41-1.47.86-2.83,1.34-4.08l11.35-35.64c.24-.7.71-1.31,1.41-1.85.7-.53,1.55-.8,2.55-.8h9.66l-22.15,60.52h-10.8l-22.15-60.52Zm95.07,60.52h-12.03v-60.52h12.03v60.52Zm69.92-14.68c.64,0,1.18.24,1.64.73l4.79,5.15c-2.19,3.07-4.93,5.41-8.23,7.02-3.3,1.61-7.21,2.41-11.74,2.41-4.1,0-7.79-.77-11.07-2.3-3.28-1.54-6.07-3.68-8.36-6.43-2.3-2.75-4.06-6.02-5.29-9.8-1.23-3.78-1.85-7.92-1.85-12.42s.66-8.68,1.98-12.46c1.32-3.78,3.18-7.04,5.58-9.78,2.4-2.73,5.27-4.86,8.62-6.38,3.34-1.52,7.02-2.28,11.03-2.28s7.67.72,10.8,2.17c3.13,1.44,5.74,3.35,7.84,5.72l-4.01,5.61c-.27.33-.58.64-.93.91-.35.27-.84.41-1.48.41s-1.25-.24-1.85-.73c-.59-.48-1.32-1.02-2.19-1.59s-1.95-1.11-3.26-1.6c-1.31-.48-2.98-.73-5.01-.73-2.22,0-4.24.46-6.06,1.39-1.82.93-3.39,2.28-4.69,4.06-1.31,1.78-2.32,3.95-3.03,6.52-.71,2.57-1.07,5.49-1.07,8.77s.39,6.26,1.19,8.84c.79,2.58,1.86,4.76,3.21,6.54,1.35,1.78,2.94,3.13,4.76,4.06,1.82.93,3.78,1.39,5.88,1.39,1.24,0,2.37-.07,3.37-.21,1-.13,1.94-.38,2.8-.73s1.68-.8,2.44-1.34c.76-.55,1.52-1.23,2.28-2.05.3-.24.61-.45.93-.61.32-.17.64-.25.98-.25Zm71.14-45.85v9.52h-24.89v16h19.37v9.16h-19.37v16.31h24.93l-.04,9.53h-36.92v-60.52h36.92Z"/>
  </g>
</svg>